<svg viewBox="0 0 1024 1024" xmlns="http://www.w3.org/2000/svg" class="h-12 w-auto text-white">
    <path d="M512 1024C229.232 1024 0 794.768 0 512S229.232 0 512 0s512 229.232 512 512-229.232 512-512 512zm0-89.6a422.4 422.4 0 1 0 0-844.8 422.4 422.4 0 0 0 0 844.8z" fill="currentColor"></path>
    <path d="M512 742.4c-127.024 0-230.4-103.376-230.4-230.4S384.976 281.6 512 281.6s230.4 103.376 230.4 230.4-103.376 230.4-230.4 230.4zm0-371.2c-77.824 0-140.8 62.976-140.8 140.8s62.976 140.8 140.8 140.8 140.8-62.976 140.8-140.8-62.976-140.8-140.8-140.8z" fill="currentColor"></path>
</svg>
