<svg viewBox="0 0 262 204" xmlns="http://www.w3.org/2000/svg" class="h-12 w-auto text-white">
    <path d="M131.243 101.886c0 43.29-35.15 78.44-78.44 78.44-43.29 0-78.44-35.15-78.44-78.44 0-43.29 35.15-78.44 78.44-78.44 43.29 0 78.44 35.15 78.44 78.44z" fill="#4285F4"></path>
    <path d="M210.083 101.886c0 43.29-35.15 78.44-78.44 78.44s-78.44-35.15-78.44-78.44c0-43.29 35.15-78.44 78.44-78.44s78.44 35.15 78.44 78.44z" fill="#EA4335"></path>
    <path d="M173.663 159.306c0 43.29-35.15 78.44-78.44 78.44s-78.44-35.15-78.44-78.44c0-43.29 35.15-78.44 78.44-78.44s78.44 35.15 78.44 78.44z" fill="#FBBC05"></path>
    <path d="M173.663 44.466c0 43.29-35.15 78.44-78.44 78.44S16.783 87.756 16.783 44.466c0-43.29 35.15-78.44 78.44-78.44s78.44 35.15 78.44 78.44z" fill="#34A853"></path>
</svg>
