<svg viewBox="0 0 48 48" xmlns="http://www.w3.org/2000/svg" class="h-12 w-auto text-white">
    <path d="M46.62 16.7C45.72 10.4 40.52 5.7 34.22 5.7c-3.3 0-6.4 1.4-8.5 3.8-4.2-2.3-9.3-2.2-13.4.4-3.9 2.5-6.3 6.6-6.9 11.2H2v8.2h4.3c.1.9.3 1.8.5 2.7-1.2 1.9-1.9 4.1-1.9 6.4 0 6.9 5.6 12.5 12.5 12.5 3.3 0 6.4-1.4 8.5-3.8 4.2 2.3 9.3 2.2 13.4-.4 3.9-2.5 6.3-6.6 6.9-11.2H46v-8.2h-4.3c-.1-.9-.3-1.8-.5-2.7 1.2-1.9 1.9-4.1 1.9-6.4zm-27.2 22c-2.9 0-5.3-2.4-5.3-5.3s2.4-5.3 5.3-5.3 5.3 2.4 5.3 5.3-2.4 5.3-5.3 5.3zm16.6-16.6c-2.9 0-5.3-2.4-5.3-5.3s2.4-5.3 5.3-5.3 5.3 2.4 5.3 5.3-2.4 5.3-5.3 5.3z" fill="currentColor"></path>
</svg>
