<svg viewBox="0 0 24 24" xmlns="http://www.w3.org/2000/svg" class="h-12 w-auto text-white">
    <path d="M18.03 4.21a.75.75 0 0 0-.98-.23l-6.75 4.1a.75.75 0 0 0-.3.62v4.98c0 .26.14.5.36.64l6.75 4.1a.75.75 0 0 0 .98-.23l3.1-5.05a.75.75 0 0 0 0-.78l-3.1-8.15ZM11.25 2.5a.75.75 0 0 0-.66.39L3.84 11.04a.75.75 0 0 0 0 .78l6.75 8.15a.75.75 0 0 0 .66.39h.23c.32 0 .6-.2.72-.5l3.1-5.05a.75.75 0 0 0-.66-1.13h-4.5a.75.75 0 0 1-.75-.75v-5a.75.75 0 0 1 .75-.75h8.25a.75.75 0 0 0 .66-1.13L12.12 2.9a.75.75 0 0 0-.87-.4Z" fill="currentColor"></path>
</svg>
