<svg width="756" height="131" viewBox="0 0 756 131" fill="none" xmlns="http://www.w3.org/2000/svg">
<path d="M734.648 107.301C722.374 107.301 713.394 101.613 712.296 89.838L722.075 88.6406C722.574 96.4239 728.062 100.016 734.848 100.016C741.533 100.016 746.024 97.0226 746.024 92.2329C746.024 87.4431 741.434 86.4453 735.247 85.0483L727.962 83.3519C719.979 81.456 714.491 77.6641 714.491 70.0803C714.491 61.6983 722.773 55.6113 734.448 55.6113C745.724 55.6113 753.408 61.2991 754.705 70.4795L744.826 71.8765C744.128 65.9891 739.837 62.8957 734.049 62.8957C728.162 62.8957 724.37 65.7895 724.37 69.5814C724.37 73.1737 726.565 74.4709 732.752 75.8679L740.036 77.5643C750.414 79.9592 755.903 83.3519 755.903 91.235C755.903 101.114 746.722 107.301 734.648 107.301Z" fill="white"/>
<path d="M684.578 107.301C675.897 107.301 670.708 102.811 668.013 98.4201V106.104H658.234V37.4507H668.113V64.393C670.608 60.3017 675.697 55.6118 684.578 55.6118C697.55 55.6118 706.93 65.8898 706.93 81.4564C706.93 97.0231 697.55 107.301 684.578 107.301ZM682.283 99.4179C691.962 99.4179 696.652 91.3352 696.652 81.4564C696.652 71.5776 691.962 63.4949 682.283 63.4949C672.604 63.4949 667.714 71.7771 667.714 81.4564C667.714 91.1357 672.604 99.4179 682.283 99.4179Z" fill="white"/>
<path d="M621.37 107.301C612.489 107.301 604.506 101.912 604.506 92.7318C604.506 83.751 610.792 79.6598 621.47 77.5643L628.255 76.1673C633.544 75.0696 636.038 73.972 636.038 69.8808C636.038 65.7895 632.646 62.8957 626.658 62.8957C620.172 62.8957 615.981 66.8872 615.582 73.4731L605.404 72.575C606.102 61.9976 614.584 55.6113 626.758 55.6113C639.331 55.6113 646.017 61.6983 646.017 72.0761V106.103H636.537V100.316H636.437C634.142 104.107 629.053 107.301 621.37 107.301ZM623.964 100.216C630.949 100.216 636.437 95.6256 636.437 87.4431V81.456C626.06 83.1523 621.17 84.5493 618.177 86.4453C615.881 87.8423 614.584 89.838 614.584 92.5322C614.584 97.1224 618.376 100.216 623.964 100.216Z" fill="white"/>
<path d="M554.729 106.104V37.4507H565.107V97.2226H599.833V106.104H554.729Z" fill="white"/>
<path d="M482.4 124.564V56.8093H492.179V64.4928C494.874 60.1022 500.063 55.6118 508.744 55.6118C521.716 55.6118 531.096 65.8898 531.096 81.4565C531.096 97.0231 521.716 107.301 508.744 107.301C499.863 107.301 494.774 102.611 492.279 98.6197V124.564H482.4ZM506.449 99.418C516.128 99.418 520.818 91.3353 520.818 81.4565C520.818 71.5776 516.128 63.4949 506.449 63.4949C496.77 63.4949 491.88 71.7772 491.88 81.4565C491.88 91.1357 496.77 99.418 506.449 99.418Z" fill="white"/>
<path d="M445.536 107.301C436.655 107.301 428.672 101.913 428.672 92.7323C428.672 83.7515 434.958 79.6603 445.636 77.5648L452.421 76.1678C457.71 75.0701 460.204 73.9725 460.204 69.8813C460.204 65.79 456.812 62.8962 450.824 62.8962C444.338 62.8962 440.147 66.8877 439.748 73.4736L429.57 72.5755C430.268 61.9981 438.75 55.6118 450.924 55.6118C463.497 55.6118 470.183 61.6988 470.183 72.0765V106.104H460.703V100.316H460.603C458.308 104.108 453.219 107.301 445.536 107.301ZM448.13 100.216C455.115 100.216 460.603 95.6261 460.603 87.4436V81.4565C450.226 83.1528 445.336 84.5498 442.343 86.4458C440.048 87.8428 438.75 89.8385 438.75 92.5327C438.75 97.1229 442.542 100.216 448.13 100.216Z" fill="white"/>
<path d="M365.171 106.103L349.505 56.8091H359.982L370.759 94.0293H370.859L382.035 56.8091H391.914L403.19 93.9296H403.29L414.066 56.8091H424.344L408.678 106.103H398.3L387.124 68.0849H387.024L375.649 106.103H365.171Z" fill="white"/>
<path d="M325.326 107.301C313.052 107.301 304.072 101.613 302.974 89.8385L312.753 88.6411C313.252 96.4244 318.74 100.017 325.526 100.017C332.211 100.017 336.702 97.0231 336.702 92.2334C336.702 87.4436 332.111 86.4458 325.925 85.0488L318.64 83.3524C310.657 81.4565 305.169 77.6646 305.169 70.0808C305.169 61.6988 313.451 55.6118 325.126 55.6118C336.402 55.6118 344.086 61.2996 345.383 70.48L335.504 71.877C334.806 65.9896 330.515 62.8962 324.727 62.8962C318.84 62.8962 315.048 65.79 315.048 69.5819C315.048 73.1742 317.243 74.4714 323.43 75.8684L330.714 77.5648C341.092 79.9597 346.58 83.3524 346.58 91.2355C346.58 101.114 337.4 107.301 325.326 107.301Z" fill="white"/>
<path d="M284.578 106.104V56.8092H294.457V106.104H284.578ZM284.578 49.1257V37.4507H294.457V49.1257H284.578Z" fill="white"/>
<path d="M229.349 106.104V56.8093H239.128V63.7943H239.228C242.022 59.5035 247.51 55.6118 254.994 55.6118C265.97 55.6118 272.457 62.1977 272.457 74.1721V106.104H262.578V78.4629C262.578 69.5819 260.582 63.8941 252.3 63.8941C244.017 63.8941 239.228 70.5798 239.228 78.5627V106.104H229.349Z" fill="white"/>
<path d="M190.932 107.301C174.567 107.301 164.588 98.0209 164.588 80.9575V37.4507H174.966V80.3588C174.966 91.435 180.155 98.6196 190.932 98.6196C202.607 98.6196 206.898 91.435 206.898 80.3588V37.4507H217.276V80.9575C217.276 98.0209 207.297 107.301 190.932 107.301Z" fill="white"/>
<path d="M37.7239 10.1662C36.0357 9.90582 35.9645 9.87526 36.759 9.75388C38.2814 9.52109 41.8762 9.83834 44.3534 10.424C50.1366 11.7908 55.399 15.2922 61.0163 21.5106L62.5086 23.1626L64.6434 22.8214C73.6372 21.3843 82.7866 22.5264 90.4391 26.0414C92.5443 27.0084 95.8636 28.9333 96.2783 29.4279C96.4104 29.5856 96.6531 30.6004 96.8174 31.6832C97.3858 35.4295 97.1013 38.301 95.949 40.4458C95.3218 41.6129 95.2868 41.9828 95.7083 42.9816C96.045 43.7787 96.9833 44.3686 97.9124 44.3673C99.8141 44.3648 101.861 41.3082 102.809 37.0552L103.186 35.3658L103.933 36.2064C108.026 40.8178 111.241 47.1067 111.794 51.5831L111.938 52.7502L111.25 51.6892C110.065 49.8634 108.875 48.6205 107.352 47.6181C104.605 45.8111 101.701 45.1962 94.0099 44.7932C87.0637 44.4293 83.1323 43.8394 79.2341 42.5755C72.6015 40.4254 69.258 37.5619 61.3795 27.2845C57.8801 22.7195 55.7172 20.1939 53.5657 18.1599C48.6768 13.5383 43.8731 11.1145 37.7239 10.1662Z" fill="white"/>
<path d="M97.8451 20.3586C98.0198 17.2996 98.4371 15.282 99.276 13.4394C99.6079 12.7101 99.919 12.1132 99.967 12.1132C100.015 12.1132 99.8707 12.6515 99.6462 13.3094C99.0364 15.0976 98.9363 17.5435 99.3564 20.3891C99.8896 23.9998 100.193 24.5207 104.031 28.421C105.831 30.2504 107.925 32.5577 108.684 33.5483L110.065 35.3495L108.684 34.0623C106.996 32.4881 103.115 29.4182 102.257 28.9793C101.682 28.685 101.597 28.6901 101.242 29.0411C100.915 29.3645 100.846 29.8504 100.801 32.1478C100.73 35.7283 100.24 38.0264 99.0549 40.3244C98.4142 41.5673 98.3132 41.302 98.893 39.8991C99.3259 38.8517 99.3698 38.3912 99.3666 34.9251C99.36 27.9608 98.5285 26.2865 93.6517 23.4183C92.4164 22.6917 90.3808 21.6439 89.1284 21.0896C87.8759 20.5353 86.881 20.0526 86.9173 20.0165C87.0554 19.8798 91.8113 21.26 93.7254 21.9921C96.5727 23.0811 97.0428 23.2222 97.3886 23.0909C97.6204 23.0028 97.7325 22.3316 97.8451 20.3586Z" fill="white"/>
<path d="M41.0031 32.2725C37.5759 27.5813 35.4555 20.3887 35.9146 15.0119L36.0565 13.348L36.8366 13.4895C38.3016 13.7552 40.8274 14.69 42.0102 15.4042C45.2559 17.3641 46.661 19.9446 48.0906 26.5706C48.5094 28.5114 49.0587 30.7077 49.3115 31.4513C49.7185 32.6481 51.2563 35.4437 52.5066 37.2593C53.4072 38.5669 52.809 39.1866 50.8183 39.0079C47.778 38.735 43.6598 35.9091 41.0031 32.2725Z" fill="white"/>
<path d="M93.6883 67.1867C77.6724 60.7751 72.0316 55.2099 72.0316 45.8196C72.0316 44.4378 72.0794 43.3071 72.1378 43.3071C72.1961 43.3071 72.8157 43.7632 73.5147 44.3206C76.7624 46.9106 80.3992 48.0168 90.4672 49.4772C96.3918 50.3366 99.7258 51.0307 102.801 52.0449C112.577 55.2682 118.625 61.8096 120.067 70.7194C120.486 73.3083 120.24 78.1633 119.561 80.7221C119.024 82.7431 117.387 86.386 116.953 86.5257C116.833 86.5645 116.715 86.1057 116.684 85.4816C116.519 82.136 114.819 78.8789 111.963 76.439C108.716 73.665 104.354 71.4564 93.6883 67.1867Z" fill="white"/>
<path d="M82.4446 69.8503C82.2439 68.663 81.8959 67.1468 81.6712 66.4809L81.2625 65.2703L82.0216 66.1174C83.072 67.2896 83.902 68.7897 84.6056 70.7876C85.1425 72.3125 85.2029 72.7659 85.1988 75.2438C85.1948 77.6765 85.1277 78.1865 84.6319 79.559C83.8501 81.7233 82.8799 83.2579 81.2517 84.9053C78.3262 87.8657 74.5648 89.5048 69.1369 90.1847C68.1934 90.3027 65.4434 90.5017 63.0258 90.6267C56.9332 90.9418 52.9233 91.5927 49.3201 92.8506C48.8021 93.0316 48.3395 93.1416 48.2926 93.0949C48.1468 92.9506 50.6 91.4965 52.6263 90.5261C55.4835 89.1576 58.3276 88.4109 64.7001 87.3558C67.848 86.8344 71.0989 86.202 71.9244 85.9504C79.7199 83.5739 83.727 77.4412 82.4446 69.8503Z" fill="white"/>
<path d="M89.7864 82.8144C87.6585 78.2663 87.1699 73.8749 88.3357 69.7796C88.4605 69.342 88.6609 68.9838 88.7816 68.9838C88.9021 68.9838 89.4044 69.2537 89.8973 69.5835C90.8779 70.2399 92.8445 71.3452 98.084 74.1856C104.622 77.7298 108.35 80.4742 110.885 83.6098C113.105 86.3559 114.479 89.4831 115.14 93.2969C115.514 95.4571 115.295 100.655 114.738 102.83C112.98 109.689 108.894 115.077 103.067 118.221C102.213 118.681 101.447 119.059 101.364 119.061C101.281 119.063 101.592 118.276 102.055 117.313C104.015 113.239 104.239 109.276 102.756 104.865C101.849 102.164 99.9988 98.8679 96.2631 93.2977C91.9198 86.8217 90.8549 85.0982 89.7864 82.8144Z" fill="white"/>
<path d="M29.6292 107.354C35.5726 102.365 42.9676 98.8201 49.7037 97.7321C52.6068 97.2632 57.4429 97.4493 60.1311 98.1334C64.4401 99.2299 68.2949 101.686 70.2995 104.612C72.2587 107.471 73.0992 109.963 73.9743 115.508C74.3195 117.695 74.6949 119.891 74.8086 120.388C75.4658 123.262 76.7446 125.559 78.3294 126.712C80.8465 128.544 85.1808 128.658 89.4447 127.004C90.1683 126.723 90.7966 126.53 90.8408 126.573C90.9954 126.726 88.8483 128.155 87.3337 128.907C85.2956 129.919 83.675 130.311 81.5215 130.311C77.6164 130.311 74.3744 128.336 71.669 124.308C71.1366 123.516 69.9401 121.141 69.0099 119.033C66.1536 112.555 64.7431 110.582 61.4266 108.422C58.5405 106.543 54.8183 106.207 52.0182 107.572C48.34 109.365 47.3137 114.038 49.9481 117C50.9952 118.177 52.9477 119.193 54.5443 119.39C57.5312 119.759 60.0981 117.5 60.0981 114.502C60.0981 112.555 59.3455 111.444 57.4508 110.594C54.8632 109.433 52.0817 110.79 52.095 113.207C52.1007 114.237 52.5521 114.885 53.5912 115.352C54.2578 115.652 54.2733 115.676 53.7297 115.563C51.3554 115.074 50.7992 112.228 52.7082 110.339C55.0002 108.071 59.7396 109.071 61.367 112.167C62.0508 113.468 62.1302 116.058 61.5341 117.621C60.1999 121.122 56.3099 122.962 52.3636 121.961C49.6769 121.279 48.5829 120.54 45.3436 117.223C39.7148 111.458 37.5296 110.341 29.4148 109.081L27.8598 108.84L29.6292 107.354Z" fill="white"/>
<path fill-rule="evenodd" clip-rule="evenodd" d="M3.21807 4.17244C22.0157 26.8566 34.9626 36.2157 36.4013 38.193C37.5892 39.8257 37.1422 41.2935 35.1071 42.4439C33.9753 43.0835 31.6486 43.7316 30.4837 43.7316C29.166 43.7316 28.7137 43.2262 28.7137 43.2262C27.9497 42.5057 27.5194 42.6317 23.5961 35.7075C18.1494 27.3043 13.5911 20.3334 13.4668 20.2167C13.1792 19.9467 13.1842 19.9559 23.0408 37.4909C24.6333 41.1456 23.3575 42.4872 23.3575 43.0077C23.3575 44.0666 23.067 44.6232 21.7532 46.0802C19.5631 48.5095 18.584 51.2391 17.8773 56.8882C17.085 63.2208 14.8572 67.694 8.68305 75.3499C5.06895 79.8315 4.47758 80.6529 3.56564 82.4592C2.41697 84.7338 2.10113 86.0079 1.97312 88.8803C1.83782 91.9171 2.10133 93.879 3.0345 96.7825C3.85146 99.3245 4.70421 101.003 6.88425 104.36C8.7656 107.258 9.84888 109.411 9.84888 110.253C9.84888 110.923 9.97754 110.924 12.8928 110.269C19.8695 108.703 25.5346 105.948 28.7207 102.572C30.6925 100.482 31.1555 99.3279 31.1705 96.4642C31.1803 94.5911 31.1141 94.199 30.6048 93.1214C29.7759 91.3675 28.2668 89.9093 24.9406 87.6484C20.5825 84.6863 18.7211 82.3015 18.2069 79.0219C17.7851 76.331 18.2744 74.4324 20.6854 69.4082C23.1808 64.2077 23.7992 61.9917 24.2176 56.7498C24.4878 53.3633 24.8619 52.0277 25.8405 50.9556C26.8612 49.8377 27.78 49.4591 30.3059 49.116C34.4239 48.5566 37.0461 47.4973 39.2015 45.5226C41.0712 43.8094 41.8537 42.1587 41.9737 39.6738L42.0649 37.7903L41.02 36.579C37.2361 32.1923 0.684011 0.724121 0.451147 0.724121C0.401401 0.724121 1.64657 2.27597 3.21807 4.17244ZM11.973 92.3165C12.8285 90.81 12.3739 88.8733 10.9429 87.9273C9.59072 87.0333 7.49022 87.4543 7.49022 88.6193C7.49022 88.9747 7.68792 89.2334 8.13349 89.4615C8.88376 89.8454 8.93822 90.277 8.34791 91.1591C7.7501 92.0525 7.79835 92.8381 8.48407 93.3718C9.58921 94.2323 11.1536 93.759 11.973 92.3165Z" fill="white"/>
<path fill-rule="evenodd" clip-rule="evenodd" d="M44.6637 50.104C42.7304 50.6944 40.8512 52.7315 40.2695 54.8676C39.9146 56.1707 40.116 58.4566 40.6475 59.1626C41.5063 60.3028 42.3368 60.6032 44.5854 60.5875C48.988 60.557 52.8152 58.6796 53.2601 56.3326C53.6249 54.4088 51.944 51.7427 49.6287 50.5721C48.4339 49.9684 45.893 49.7289 44.6637 50.104ZM49.8103 54.1054C50.4891 53.1462 50.1921 52.1096 49.0375 51.4084C46.8386 50.0735 43.5133 51.1782 43.5133 53.2436C43.5133 54.2717 45.2473 55.3934 46.8369 55.3934C47.8948 55.3934 49.3426 54.7662 49.8103 54.1054Z" fill="white"/>
</svg>
