<svg width="260" height="439" viewBox="0 0 260 439" fill="none" xmlns="http://www.w3.org/2000/svg">
<path d="M185.982 438.194C177.321 438.194 170.983 434.18 170.209 425.871L177.11 425.026C177.462 430.518 181.335 433.053 186.123 433.053C190.841 433.053 194.009 430.941 194.009 427.561C194.009 424.181 190.77 423.477 186.405 422.491L181.264 421.294C175.631 419.956 171.758 417.28 171.758 411.929C171.758 406.014 177.603 401.718 185.841 401.718C193.798 401.718 199.22 405.732 200.136 412.21L193.164 413.196C192.672 409.042 189.644 406.859 185.56 406.859C181.405 406.859 178.729 408.901 178.729 411.577C178.729 414.111 180.278 415.027 184.644 416.013L189.785 417.21C197.108 418.9 200.981 421.294 200.981 426.857C200.981 433.828 194.502 438.194 185.982 438.194Z" fill="#F50DB4"/>
<path d="M150.649 438.194C144.523 438.194 140.861 435.025 138.96 431.927V437.349H132.059V388.903H139.031V407.915C140.791 405.028 144.382 401.719 150.649 401.719C159.803 401.719 166.422 408.971 166.422 419.956C166.422 430.941 159.803 438.194 150.649 438.194ZM149.03 432.631C155.86 432.631 159.169 426.927 159.169 419.956C159.169 412.985 155.86 407.281 149.03 407.281C142.199 407.281 138.749 413.126 138.749 419.956C138.749 426.787 142.199 432.631 149.03 432.631Z" fill="#F50DB4"/>
<path d="M106.045 438.194C99.778 438.194 94.1448 434.391 94.1448 427.913C94.1448 421.576 98.581 418.689 106.115 417.21L110.904 416.224C114.636 415.449 116.396 414.675 116.396 411.788C116.396 408.901 114.002 406.859 109.777 406.859C105.2 406.859 102.243 409.675 101.961 414.323L94.7785 413.689C95.2714 406.225 101.257 401.718 109.848 401.718C118.72 401.718 123.438 406.014 123.438 413.337V437.349H116.748V433.265H116.678C115.058 435.94 111.467 438.194 106.045 438.194ZM107.876 433.194C112.805 433.194 116.678 429.955 116.678 424.181V419.956C109.355 421.153 105.904 422.139 103.792 423.477C102.172 424.463 101.257 425.871 101.257 427.772C101.257 431.011 103.933 433.194 107.876 433.194Z" fill="#F50DB4"/>
<path d="M59.0193 437.349V388.903H66.3426V431.082H90.8473V437.349H59.0193Z" fill="#F50DB4"/>
<path d="M224.953 381.376V333.564H231.854V338.986C233.756 335.887 237.417 332.719 243.543 332.719C252.697 332.719 259.317 339.972 259.317 350.956C259.317 361.941 252.697 369.194 243.543 369.194C237.276 369.194 233.685 365.885 231.925 363.068V381.376H224.953ZM241.924 363.631C248.754 363.631 252.064 357.928 252.064 350.956C252.064 343.985 248.754 338.282 241.924 338.282C235.093 338.282 231.643 344.126 231.643 350.956C231.643 357.787 235.093 363.631 241.924 363.631Z" fill="#F50DB4"/>
<path d="M198.939 369.194C192.672 369.194 187.039 365.392 187.039 358.914C187.039 352.576 191.475 349.689 199.01 348.21L203.798 347.224C207.53 346.45 209.29 345.675 209.29 342.788C209.29 339.901 206.896 337.859 202.671 337.859C198.094 337.859 195.137 340.676 194.855 345.323L187.673 344.689C188.166 337.225 194.151 332.719 202.742 332.719C211.614 332.719 216.332 337.014 216.332 344.337V368.349H209.642V364.265H209.572C207.953 366.941 204.361 369.194 198.939 369.194ZM200.77 364.195C205.699 364.195 209.572 360.956 209.572 355.181V350.956C202.249 352.154 198.798 353.139 196.686 354.477C195.066 355.463 194.151 356.871 194.151 358.773C194.151 362.012 196.827 364.195 200.77 364.195Z" fill="#F50DB4"/>
<path d="M142.228 368.349L131.173 333.563H138.567L146.172 359.829H146.242L154.129 333.563H161.1L169.057 359.758H169.127L176.732 333.563H183.985L172.93 368.349H165.607L157.72 341.52H157.65L149.622 368.349H142.228Z" fill="#F50DB4"/>
<path d="M114.111 369.194C105.45 369.194 99.1123 365.181 98.3378 356.871L105.239 356.026C105.591 361.519 109.463 364.054 114.252 364.054C118.97 364.054 122.138 361.941 122.138 358.561C122.138 355.181 118.899 354.477 114.533 353.491L109.393 352.294C103.76 350.956 99.8869 348.281 99.8869 342.929C99.8869 337.014 105.731 332.719 113.97 332.719C121.927 332.719 127.349 336.732 128.265 343.211L121.293 344.197C120.8 340.042 117.773 337.859 113.688 337.859C109.534 337.859 106.858 339.901 106.858 342.577C106.858 345.112 108.407 346.027 112.773 347.013L117.913 348.21C125.237 349.9 129.11 352.294 129.11 357.857C129.11 364.828 122.631 369.194 114.111 369.194Z" fill="#F50DB4"/>
<path d="M85.3566 368.349V333.564H92.3278V368.349H85.3566ZM85.3566 328.142V319.903H92.3278V328.142H85.3566Z" fill="#F50DB4"/>
<path d="M46.3829 368.349V333.564H53.2837V338.493H53.3541C55.3258 335.465 59.1986 332.719 64.4798 332.719C72.2256 332.719 76.8027 337.366 76.8027 345.816V368.349H69.8315V348.844C69.8315 342.577 68.4231 338.563 62.5786 338.563C56.7341 338.563 53.3541 343.281 53.3541 348.914V368.349H46.3829Z" fill="#F50DB4"/>
<path d="M19.2733 369.194C7.72507 369.194 0.683472 362.645 0.683472 350.604V319.903H8.00674V350.182C8.00674 357.998 11.6684 363.068 19.2733 363.068C27.512 363.068 30.5399 357.998 30.5399 350.182V319.903H37.8631V350.604C37.8631 362.645 30.8215 369.194 19.2733 369.194Z" fill="#F50DB4"/>
<path d="M80.9225 20.477C77.2626 19.9123 77.1083 19.8461 78.8306 19.5828C82.1312 19.078 89.9246 19.766 95.2952 21.0362C107.833 24.0004 119.242 31.5938 131.42 45.0797L134.655 48.6624L139.283 47.9223C158.782 44.8058 178.617 47.2826 195.208 54.9055C199.772 57.0027 206.968 61.1772 207.867 62.2499C208.154 62.5919 208.68 64.7926 209.036 67.141C210.268 75.2655 209.651 81.493 207.153 86.1443C205.793 88.6755 205.718 89.4776 206.632 91.6438C207.361 93.3723 209.396 94.6517 211.41 94.649C215.533 94.6434 219.97 88.0146 222.027 78.7912L222.843 75.1275L224.461 76.9503C233.336 86.9511 240.307 100.59 241.504 110.298L241.816 112.829L240.324 110.528C237.757 106.568 235.178 103.873 231.874 101.699C225.92 97.7802 219.624 96.4465 202.949 95.5726C187.89 94.7833 179.367 93.504 170.916 90.763C156.536 86.1002 149.288 79.8901 132.207 57.6014C124.621 47.7014 119.932 42.2241 115.267 37.813C104.668 27.7902 94.2539 22.5337 80.9225 20.477Z" fill="#F50DB4"/>
<path d="M211.264 42.5812C211.643 35.9473 212.548 31.5717 214.366 27.5757C215.086 25.994 215.76 24.6994 215.864 24.6994C215.968 24.6994 215.655 25.8669 215.169 27.2936C213.847 31.1717 213.63 36.4761 214.54 42.6475C215.697 50.4779 216.354 51.6077 224.675 60.0663C228.578 64.0337 233.118 69.0375 234.763 71.1858L237.756 75.092L234.763 72.3004C231.104 68.8866 222.688 62.2288 220.829 61.2771C219.583 60.6388 219.397 60.6498 218.628 61.411C217.92 62.1124 217.771 63.1662 217.672 68.1484C217.519 75.9135 216.455 80.8975 213.887 85.8811C212.498 88.5765 212.279 88.0013 213.536 84.9588C214.474 82.6873 214.57 81.6886 214.563 74.1716C214.548 59.0681 212.746 55.4371 202.173 49.2169C199.495 47.6412 195.082 45.3686 192.366 44.1666C189.651 42.9645 187.494 41.9176 187.573 41.8393C187.872 41.543 198.183 44.5361 202.333 46.1238C208.506 48.4856 209.525 48.7917 210.274 48.5068C210.777 48.3158 211.02 46.8602 211.264 42.5812Z" fill="#F50DB4"/>
<path d="M88.0317 68.419C80.6017 58.2452 76.0047 42.6465 77 30.9858L77.3077 27.3773L78.9989 27.6843C82.1749 28.2605 87.651 30.2877 90.2151 31.8367C97.2518 36.0872 100.298 41.6833 103.397 56.0533C104.305 60.2623 105.496 65.0255 106.044 66.638C106.927 69.2336 110.261 75.2964 112.971 79.2339C114.924 82.0697 113.627 83.4135 109.311 83.026C102.72 82.4342 93.7913 76.3056 88.0317 68.419Z" fill="#F50DB4"/>
<path d="M202.252 144.137C167.53 130.233 155.301 118.163 155.301 97.7986C155.301 94.8018 155.405 92.3498 155.531 92.3498C155.657 92.3498 157.001 93.3388 158.516 94.5477C165.557 100.165 173.442 102.564 195.269 105.731C208.113 107.595 215.341 109.1 222.009 111.299C243.202 118.29 256.314 132.476 259.44 151.799C260.349 157.413 259.816 167.942 258.343 173.492C257.18 177.875 253.631 185.775 252.69 186.078C252.429 186.162 252.173 185.167 252.106 183.814C251.749 176.558 248.063 169.494 241.872 164.203C234.833 158.187 225.375 153.397 202.252 144.137Z" fill="#F50DB4"/>
<path d="M177.876 149.914C177.441 147.339 176.686 144.051 176.199 142.607L175.313 139.981L176.959 141.818C179.236 144.36 181.036 147.614 182.561 151.947C183.725 155.254 183.856 156.237 183.847 161.611C183.838 166.887 183.693 167.993 182.618 170.969C180.923 175.663 178.82 178.991 175.29 182.564C168.947 188.984 160.793 192.539 149.025 194.013C146.98 194.269 141.018 194.701 135.777 194.972C122.568 195.655 113.874 197.067 106.063 199.795C104.94 200.187 103.937 200.426 103.835 200.324C103.519 200.011 108.838 196.858 113.231 194.754C119.425 191.786 125.591 190.166 139.406 187.878C146.231 186.747 153.279 185.376 155.068 184.83C171.969 179.676 180.656 166.376 177.876 149.914Z" fill="#F50DB4"/>
<path d="M193.793 178.029C189.18 168.166 188.12 158.642 190.648 149.761C190.918 148.812 191.353 148.035 191.615 148.035C191.876 148.035 192.965 148.62 194.033 149.335C196.159 150.759 200.423 153.156 211.782 159.316C225.956 167.002 234.038 172.954 239.534 179.754C244.347 185.71 247.325 192.492 248.759 200.762C249.571 205.447 249.095 216.72 247.886 221.438C244.076 236.313 235.218 247.997 222.585 254.815C220.734 255.813 219.072 256.633 218.892 256.637C218.712 256.641 219.387 254.935 220.391 252.847C224.641 244.011 225.125 235.416 221.912 225.849C219.944 219.992 215.933 212.844 207.834 200.764C198.418 186.72 196.109 182.982 193.793 178.029Z" fill="#F50DB4"/>
<path d="M63.3734 231.249C76.2585 220.428 92.2908 212.741 106.894 210.381C113.188 209.364 123.673 209.768 129.501 211.252C138.843 213.629 147.2 218.955 151.546 225.301C155.793 231.502 157.615 236.907 159.513 248.931C160.261 253.674 161.075 258.437 161.321 259.516C162.746 265.747 165.519 270.729 168.954 273.23C174.411 277.203 183.808 277.45 193.052 273.864C194.621 273.255 195.983 272.834 196.079 272.929C196.414 273.26 191.759 276.359 188.475 277.991C184.057 280.186 180.543 281.034 175.875 281.034C167.409 281.034 160.38 276.751 154.515 268.017C153.361 266.298 150.767 261.149 148.75 256.575C142.557 242.528 139.5 238.248 132.31 233.565C126.052 229.49 117.983 228.76 111.912 231.72C103.938 235.609 101.713 245.744 107.424 252.168C109.694 254.72 113.927 256.922 117.389 257.35C123.864 258.152 129.429 253.252 129.429 246.749C129.429 242.527 127.798 240.117 123.69 238.274C118.08 235.756 112.05 238.699 112.079 243.941C112.091 246.176 113.07 247.58 115.322 248.594C116.768 249.244 116.801 249.295 115.623 249.052C110.475 247.99 109.269 241.818 113.408 237.721C118.377 232.802 128.652 234.972 132.18 241.687C133.663 244.507 133.835 250.124 132.542 253.515C129.65 261.106 121.217 265.098 112.661 262.926C106.836 261.447 104.465 259.845 97.4419 252.651C85.2388 240.148 80.5013 237.725 62.9085 234.994L59.5373 234.47L63.3734 231.249Z" fill="#F50DB4"/>
<path fill-rule="evenodd" clip-rule="evenodd" d="M6.11468 7.47836C46.8675 56.6735 74.936 76.9706 78.0552 81.2588C80.6306 84.7996 79.6613 87.9829 75.2493 90.4777C72.7958 91.8647 67.7515 93.2702 65.2259 93.2702C62.3693 93.2702 61.3886 92.1741 61.3886 92.1741C59.7322 90.6117 58.7994 90.885 50.2938 75.8685C38.4854 57.6444 28.6032 42.5266 28.3336 42.2735C27.7102 41.6881 27.7209 41.7079 49.0898 79.7361C52.5424 87.6621 49.7766 90.5715 49.7766 91.7004C49.7766 93.9969 49.1467 95.204 46.2984 98.3638C41.5503 103.632 39.4278 109.552 37.8956 121.803C36.1779 135.536 31.3479 145.238 17.9626 161.841C10.1273 171.56 8.84525 173.342 6.86818 177.259C4.3779 182.192 3.69316 184.955 3.41564 191.184C3.12231 197.77 3.6936 202.025 5.7167 208.322C7.48783 213.835 9.33659 217.475 14.0629 224.756C18.1416 231.039 20.4901 235.708 20.4901 237.535C20.4901 238.988 20.769 238.99 27.0893 237.571C42.2146 234.173 54.4963 228.199 61.4038 220.877C65.6787 216.345 66.6823 213.842 66.7149 207.632C66.7362 203.569 66.5926 202.719 65.4885 200.382C63.6913 196.578 60.4197 193.416 53.2087 188.513C43.7603 182.089 39.7248 176.917 38.6101 169.804C37.6957 163.969 38.7565 159.851 43.9834 148.955C49.3935 137.677 50.7342 132.871 51.6411 121.503C52.2269 114.159 53.038 111.262 55.1597 108.937C57.3724 106.513 59.3644 105.692 64.8405 104.947C73.7683 103.734 79.4531 101.437 84.1259 97.1543C88.1795 93.4391 89.8758 89.8591 90.1361 84.4701L90.3337 80.3853L88.0684 77.7585C79.8649 68.2451 0.62088 0 0.116037 0C0.00818888 0 2.70768 3.36549 6.11468 7.47836ZM25.0951 198.636C26.9499 195.369 25.9644 191.169 22.8619 189.117C19.9304 187.179 15.3766 188.092 15.3766 190.618C15.3766 191.389 15.8052 191.95 16.7712 192.445C18.3977 193.277 18.5158 194.213 17.2361 196.126C15.94 198.064 16.0446 199.768 17.5312 200.925C19.9272 202.791 23.3188 201.765 25.0951 198.636Z" fill="#F50DB4"/>
<path fill-rule="evenodd" clip-rule="evenodd" d="M95.9678 107.09C91.7766 108.37 87.7025 112.788 86.4414 117.421C85.672 120.247 86.1085 125.204 87.2609 126.735C89.1227 129.208 90.9231 129.86 95.7982 129.826C105.343 129.759 113.64 125.688 114.605 120.598C115.396 116.426 111.751 110.644 106.732 108.105C104.142 106.796 98.6329 106.277 95.9678 107.09ZM107.125 115.768C108.597 113.688 107.953 111.44 105.45 109.919C100.683 107.024 93.4738 109.42 93.4738 113.899C93.4738 116.129 97.2332 118.561 100.679 118.561C102.973 118.561 106.112 117.201 107.125 115.768Z" fill="#F50DB4"/>
</svg>
